<svg id="Layer_1" data-name="Layer 1"
  xmlns="http://www.w3.org/2000/svg" viewBox="0 0 483 101.26">
  <defs>
    <style>.cls-1,.cls-2{fill:#730000;}.cls-2{stroke:#730000;stroke-miterlimit:10;stroke-width:5px;}.cls-3{fill:#fff;}</style>
  </defs>
  <title>insiderhub-logo</title>
  <path class="cls-1" d="M479.5,99.37H20.5a12,12,0,0,0-12,12v77.26a12,12,0,0,0,12,12h459a12,12,0,0,0,12-12V111.37A12,12,0,0,0,479.5,99.37ZM486,188.7a7,7,0,0,1-7,7H21a7,7,0,0,1-7-7V111.3a7,7,0,0,1,7-7H479a7,7,0,0,1,7,7Z" transform="translate(-8.5 -99.37)"/>
  <path class="cls-2" d="M479.52,195.7a6.86,6.86,0,0,0,6.73-7V111.3a6.86,6.86,0,0,0-6.73-7H296.45v91.4Z" transform="translate(-8.5 -99.37)"/>
  <path class="cls-1" d="M26,171.73V128.24H39.61v43.49Z" transform="translate(-8.5 -99.37)"/>
  <path class="cls-1" d="M80.06,171.73l-15.94-21A49.68,49.68,0,0,1,61,146.25h-.13q.19,3.22.19,7.22v18.26H48.49V128.24H61.35l15.28,20,.69.94c.27.36.55.74.82,1.12s.53.76.77,1.12a6.79,6.79,0,0,1,.55,1h.13a38.15,38.15,0,0,1-.19-4.61v-19.5H92v43.49Z" transform="translate(-8.5 -99.37)"/>
  <path class="cls-1" d="M132.26,158.57a12.24,12.24,0,0,1-2.41,7.55,14.25,14.25,0,0,1-6.76,4.79,30.79,30.79,0,0,1-10.46,1.58,35.33,35.33,0,0,1-13-2.31V158.26a26,26,0,0,0,6.27,3.23,19.06,19.06,0,0,0,6.4,1.23,6.51,6.51,0,0,0,3.47-.77,2.5,2.5,0,0,0,1.23-2.26,3,3,0,0,0-.61-1.86,6,6,0,0,0-1.86-1.5,35.57,35.57,0,0,0-4.62-1.91q-10.9-4-10.9-13a12,12,0,0,1,5-10.09q5-3.78,13.36-3.78,2.36,0,4.35.18t3.61.46q1.62.27,4.55,1v11.07a24,24,0,0,0-11.22-3,7.14,7.14,0,0,0-3.65.82,2.51,2.51,0,0,0-1.39,2.24,2.77,2.77,0,0,0,1.12,2.26,21.23,21.23,0,0,0,4.68,2.32q7,2.73,9.94,6A11.15,11.15,0,0,1,132.26,158.57Z" transform="translate(-8.5 -99.37)"/>
  <path class="cls-1" d="M137.77,171.73V128.24h13.61v43.49Z" transform="translate(-8.5 -99.37)"/>
  <path class="cls-1" d="M202.86,149.44A23.28,23.28,0,0,1,200,161.13a19.52,19.52,0,0,1-8.24,7.84,26.58,26.58,0,0,1-12.35,2.76H160.27V128.24H179Q202.86,128.24,202.86,149.44Zm-14.46.12a12.14,12.14,0,0,0-1.34-5.73,9.48,9.48,0,0,0-3.83-3.94,11.79,11.79,0,0,0-5.86-1.4h-3.5v23h3.81a10,10,0,0,0,7.8-3.23A12.49,12.49,0,0,0,188.4,149.56Z" transform="translate(-8.5 -99.37)"/>
  <path class="cls-1" d="M209.22,171.73V128.24h28.13v10.25H222.83v6.34h13.64v10.25H222.83v6.4H238.4v10.25Z" transform="translate(-8.5 -99.37)"/>
  <path class="cls-1" d="M268.26,171.73l-3.37-9.37a11.55,11.55,0,0,0-2.54-4.34,4.7,4.7,0,0,0-3.39-1.58h-.54v15.29H244.82V128.24h18.08q9.48,0,14,3t4.52,9a11.08,11.08,0,0,1-2.63,7.52,15.12,15.12,0,0,1-7.83,4.4v.12a11,11,0,0,1,4.77,2.76,17,17,0,0,1,3.42,5.67l4.44,11.07ZM267,142a4.46,4.46,0,0,0-1.39-3.46,6.28,6.28,0,0,0-4.35-1.27h-2.8v9.95h2.46a6.39,6.39,0,0,0,4.41-1.49A4.78,4.78,0,0,0,267,142Z" transform="translate(-8.5 -99.37)"/>
  <text x="-8.5" y="-99.37"></text>
  <path class="cls-3" d="M356.14,171.31V155.13h-15v16.18H328.07V127.94h13.07V144h15V127.94h13.07v43.37Z" transform="translate(-8.5 -99.37)"/>
  <path class="cls-3" d="M415.57,151.5q0,10.43-4.76,15.5t-14.68,5.07q-9.25,0-14-5.07t-4.79-15.26v-23.8h13.13v24.29a11.23,11.23,0,0,0,1.56,6.43,5.1,5.1,0,0,0,4.46,2.25,5.16,5.16,0,0,0,4.46-2.12q1.53-2.12,1.53-6.26V127.94h13.16Z" transform="translate(-8.5 -99.37)"/>
  <path class="cls-3" d="M460.67,158q0,6.38-4.48,9.84t-12.79,3.46H423.62V127.94H442q17.27,0,17.27,10.49a8.18,8.18,0,0,1-1.09,4.16,9.8,9.8,0,0,1-3.31,3.31,13.86,13.86,0,0,1-4.89,1.94V148a13.78,13.78,0,0,1,5.53,1.83,10.82,10.82,0,0,1,3.78,3.66A8.66,8.66,0,0,1,460.67,158Zm-15.24-17.3q0-4-6.32-4h-2.42v8.2h3.78a5.37,5.37,0,0,0,3.57-1.16A3.74,3.74,0,0,0,445.42,140.7Zm1.36,17.24a4,4,0,0,0-1.36-3.08,5.22,5.22,0,0,0-3.6-1.21h-5.14v8.86H441a6.58,6.58,0,0,0,4.2-1.22A4,4,0,0,0,446.78,157.94Z" transform="translate(-8.5 -99.37)"/>
</svg>